<svg width="34" height="20" viewBox="0 0 34 20" fill="none" xmlns="http://www.w3.org/2000/svg">
<path d="M2 16L0.75 16L2 16ZM6 12L6 10.75L6 12ZM14 12V10.75V12ZM2 16H3.25C3.25 15.2707 3.53973 14.5712 4.05546 14.0555L3.17157 13.1716L2.28769 12.2877C1.30312 13.2723 0.75 14.6076 0.75 16H2ZM3.17157 13.1716L4.05546 14.0555C4.57118 13.5397 5.27065 13.25 6 13.25L6 12L6 10.75C4.60761 10.75 3.27226 11.3031 2.28769 12.2877L3.17157 13.1716ZM6 12V13.25H14V12V10.75H6V12ZM14 12L14 13.25C14.7293 13.25 15.4288 13.5397 15.9445 14.0555L16.8284 13.1716L17.7123 12.2877C16.7277 11.3031 15.3924 10.75 14 10.75L14 12ZM16.8284 13.1716L15.9445 14.0555C16.4603 14.5712 16.75 15.2707 16.75 16H18H19.25C19.25 14.6076 18.6969 13.2723 17.7123 12.2877L16.8284 13.1716ZM18 16H16.75C16.75 16.1989 16.671 16.3897 16.5303 16.5303L17.4142 17.4142L18.2981 18.2981C18.9076 17.6886 19.25 16.862 19.25 16H18ZM17.4142 17.4142L16.5303 16.5303C16.3897 16.671 16.1989 16.75 16 16.75V18V19.25C16.862 19.25 17.6886 18.9076 18.2981 18.2981L17.4142 17.4142ZM16 18V16.75H4V18V19.25H16V18ZM4 18V16.75C3.80109 16.75 3.61032 16.671 3.46967 16.5303L2.58579 17.4142L1.7019 18.2981C2.3114 18.9076 3.13805 19.25 4 19.25V18ZM2.58579 17.4142L3.46967 16.5303C3.32902 16.3897 3.25 16.1989 3.25 16L2 16L0.75 16C0.75 16.862 1.09241 17.6886 1.7019 18.2981L2.58579 17.4142ZM13 5H11.75C11.75 5.9665 10.9665 6.75 10 6.75V8V9.25C12.3472 9.25 14.25 7.34721 14.25 5H13ZM10 8V6.75C9.0335 6.75 8.25 5.9665 8.25 5H7H5.75C5.75 7.34721 7.65279 9.25 10 9.25V8ZM7 5H8.25C8.25 4.0335 9.0335 3.25 10 3.25V2V0.75C7.65279 0.75 5.75 2.65279 5.75 5H7ZM10 2V3.25C10.9665 3.25 11.75 4.0335 11.75 5H13H14.25C14.25 2.65279 12.3472 0.75 10 0.75V2Z" fill="#9BB0BC"/>
<path d="M21.6504 5H33.3507C33.4692 5.00038 33.5853 5.03395 33.6866 5.09709C33.7878 5.16023 33.8704 5.25056 33.9255 5.35834C33.9805 5.46613 34.0059 5.58729 33.9989 5.70879C33.9918 5.83029 33.9527 5.94752 33.8857 6.04787L28.0355 14.73C27.7931 15.09 27.2093 15.09 26.9662 14.73L21.1161 6.04787C21.0484 5.94773 21.0087 5.83044 21.0013 5.70873C20.9939 5.58703 21.0191 5.46558 21.0742 5.35757C21.1292 5.24955 21.2121 5.15912 21.3137 5.09608C21.4152 5.03304 21.5317 4.99981 21.6504 5Z" fill="#9BB0BC"/>
</svg>
